<?xml version="1.0" encoding="UTF-8"?>
<svg id="Capa_2" xmlns="http://www.w3.org/2000/svg" viewBox="0 0 507.89 319.7">
  <defs>
    <style>
      .cls-1 {
        font-family: AltoneTrial-Regular, 'Altone Trial';
        font-size: 35.82px;
        letter-spacing: -.01em;
      }

      .cls-1, .cls-2 {
        isolation: isolate;
      }

      .cls-3 {
        fill: gray;
        stroke: gray;
        stroke-width: 2px;
      }

      .cls-3, .cls-4, .cls-5 {
        stroke-miterlimit: 10;
      }

      .cls-4 {
        stroke: #000;
        stroke-width: 8px;
      }

      .cls-4, .cls-5 {
        fill: none;
        stroke-linecap: square;
      }

      .cls-5 {
        stroke: #4d4d4d;
        stroke-width: 4px;
      }
    </style>
  </defs>
  <g id="Capa_1-2" data-name="Capa_1">
    <g id="LOGO">
      <polyline class="cls-4" points="4 168.87 4 4 349.43 4 349.43 48.94"/>
      <polyline class="cls-5" points="349.42 126.21 349.42 171.01 505.89 171.01 505.89 83 76.92 83 76.92 171"/>
    </g>
    <g id="TEXTO">
      <path class="cls-3" d="M66.63,265.28c-2.88,3.98-7.29,5.97-13.23,5.97s-10.33-1.92-13.3-5.77c-2.36-3.07-3.54-6.9-3.54-11.49s1.23-8.67,3.68-11.84c3.06-3.95,7.61-5.92,13.65-5.92s10.59,1.96,13.23,5.87l-.92.61c-2.36-3.68-6.46-5.52-12.31-5.52s-9.88,1.86-12.8,5.57c-2.36,3-3.54,6.68-3.54,11.03s1.13,7.93,3.4,10.93c2.78,3.71,6.93,5.57,12.45,5.57s9.69-1.87,12.38-5.62l.85.61h0Z"/>
      <path class="cls-3" d="M118.13,270.89h-1.59l-6.75-11.28h-26.59l-6.84,11.28h-1.79l21.23-34.31h1.89l20.44,34.31h0ZM109.21,258.65l-12.4-20.8-12.9,20.8h25.3Z"/>
      <path class="cls-3" d="M157.23,262.54c0,2.73-1.34,4.87-4.03,6.4-2.68,1.54-6.18,2.3-10.5,2.3-5.37,0-9.42-1-12.16-2.99s-4.1-4.72-4.1-8.2v-.51h1.18v.3c0,6.95,5.05,10.42,15.15,10.42,4.05,0,7.27-.67,9.67-2.02,2.39-1.35,3.59-3.3,3.59-5.87,0-1.79-.46-3.21-1.38-4.28-.92-1.06-2.62-1.93-5.09-2.61-1.16-.3-3.79-.88-7.89-1.72-4.68-.94-7.81-1.8-9.39-2.58-3.05-1.48-4.58-3.68-4.58-6.58,0-5.6,4.66-8.4,13.97-8.4s14.65,3.32,14.76,9.97h-1.11c-.21-3.04-1.34-5.28-3.39-6.73-2.21-1.52-5.63-2.28-10.26-2.28-8.58,0-12.87,2.48-12.87,7.44,0,2.5,1.24,4.37,3.71,5.62,1.58.78,4.21,1.48,7.89,2.13,6,1.01,10,2.01,12,2.99,3.21,1.55,4.81,3.95,4.81,7.19h.02Z"/>
      <path class="cls-3" d="M207.13,270.89h-1.59l-6.75-11.28h-26.59l-6.84,11.28h-1.79l21.23-34.31h1.89l20.44,34.31h0ZM198.2,258.65l-12.4-20.8-12.9,20.8h25.3Z"/>
      <path class="cls-3" d="M248.12,254.9c.05.71.08,1.4.08,2.07,0,3.91-1.32,7.17-3.96,9.77-2.99,3-7.3,4.5-12.94,4.5-6.7,0-11.69-1.89-14.99-5.67-2.69-3.04-4.03-6.95-4.03-11.74s1.32-8.57,3.96-11.74c3.25-3.91,8.14-5.87,14.69-5.87,4.87,0,8.75,1.06,11.64,3.19,2.59,1.89,4.23,4.52,4.95,7.89h-1.14c-1.57-6.75-6.72-10.12-15.45-10.12-6.19,0-10.81,1.84-13.85,5.52-2.49,2.93-3.73,6.63-3.73,11.08s1.27,8.23,3.8,11.13c3.09,3.58,7.81,5.36,14.15,5.36,4.97,0,8.9-1.33,11.79-4,2.64-2.39,3.96-5.3,3.96-8.7v-1.72h-15.52v-.96h16.59Z"/>
      <path class="cls-3" d="M293.07,245.24c0,4.82-3.19,7.81-9.56,8.96,5.95.94,8.93,3.73,8.93,8.35v8.35h-1.26v-8.2c0-5.23-4.24-7.84-12.72-7.84h-17.77v16.04h-1.35v-34.31h19.67c9.38,0,14.07,2.88,14.07,8.65h-.01ZM291.8,245.39c0-5.23-4.21-7.84-12.63-7.84h-18.5v16.29h17.41c4.45,0,7.85-.78,10.2-2.33,2.35-1.55,3.52-3.59,3.52-6.12h0Z"/>
      <path class="cls-3" d="M342.38,270.89h-1.59l-6.75-11.28h-26.59l-6.85,11.28h-1.78l21.23-34.31h1.88l20.44,34.31h.01ZM333.45,258.65l-12.4-20.8-12.9,20.8h25.3Z"/>
      <path class="cls-3" d="M382.94,270.89h-1.87l-30.47-33.24v33.24h-1.27v-34.31h1.87c3.23,3.74,8.3,9.28,15.24,16.6,6.93,7.32,12.01,12.85,15.24,16.6v-33.19h1.27v34.31h-.01Z"/>
      <path class="cls-3" d="M428.38,253.79c0,4.79-1.49,8.67-4.48,11.64-3.72,3.64-9.33,5.46-16.83,5.46h-13.02v-34.31h15.22c7.1,0,12.26,1.92,15.48,5.77,2.42,2.9,3.64,6.71,3.64,11.44h0ZM427.12,253.79c0-10.83-5.95-16.24-17.84-16.24h-13.95v32.38h11.92c7.1,0,12.37-1.72,15.81-5.16,2.71-2.77,4.06-6.43,4.06-10.98h0Z"/>
      <path class="cls-3" d="M465.75,270.89h-29.75v-34.31h29.41v.96h-28.2v14.98h25v.91h-25v16.5h28.54v.96h0Z"/>
      <g class="cls-2">
        <text class="cls-1" transform="translate(138.79 311.71) scale(1.18 1)"><tspan x="0" y="0">INGENIERIA</tspan></text>
      </g>
    </g>
  </g>
</svg>